<svg version="1.2" xmlns="http://www.w3.org/2000/svg" viewBox="0 0 100 100" width="100" height="100">
	<title>vector-svgrepo-com</title>
	<style>
		.s0 { fill: #ffffff } 
	</style>
	<path class="s0" d="m87.88 35.29c-6.07-3.8-13.02-5.88-20.23-5.88-4.58 0-9 0.85-13.17 2.38l15.11-15.11c1.19 0.6 2.52 0.97 3.94 0.97 4.86 0 8.82-3.96 8.82-8.83 0-4.86-3.96-8.82-8.82-8.82-4.87 0-8.82 3.96-8.82 8.82 0 1.3 0.29 2.52 0.8 3.63l-23 22.99q-0.72-0.13-1.47-0.15c-4.87 0-8.83 3.96-8.83 8.83q0.01 0.75 0.15 1.47l-19.92 19.92c-1.1-0.51-2.32-0.8-3.62-0.8-4.86 0-8.82 3.95-8.82 8.82 0 4.86 3.96 8.82 8.82 8.82 4.87 0 8.83-3.96 8.83-8.82 0-1.42-0.37-2.75-0.97-3.94l15.11-15.11c-1.54 4.2-2.38 8.66-2.38 13.17 0 8.64 3.6 16.09 5.88 19.94v12.41h17.65v-17.65h-13.74c-2.46-4.86-3.91-10.07-3.91-14.7 0-5.22 1.3-10.38 3.7-14.97q0.99 0.25 2.05 0.26c4.86 0 8.82-3.96 8.82-8.82 0-1.06-0.22-2.06-0.56-3 9.67-6.66 22.63-7.46 33.05-2.2v14.02h17.65v-17.65zm-14.35-29.41c1.62 0 2.94 1.32 2.94 2.94 0 1.63-1.32 2.94-2.94 2.94-1.63 0-2.94-1.31-2.94-2.94 0-1.62 1.31-2.94 2.94-2.94zm-64.71 70.59c-1.62 0-2.94-1.32-2.94-2.94 0-1.62 1.32-2.94 2.94-2.94 1.62 0 2.94 1.32 2.94 2.94 0 1.62-1.32 2.94-2.94 2.94zm32.35 11.77h5.89v5.88h-5.89zm-0.14-41.18c-1.62 0-2.94-1.32-2.94-2.94 0-1.62 1.32-2.94 2.94-2.94 1.63 0 2.94 1.32 2.94 2.94 0 1.62-1.31 2.94-2.94 2.94zm53.09 0h-5.89v-5.88h5.89z"/>
</svg>