<svg version="1.2" xmlns="http://www.w3.org/2000/svg" viewBox="0 0 100 96" width="100" height="96">
	<title>social-media-svgrepo-com</title>
	<style>
		.s0 { fill: #ffffff } 
	</style>
	<g id="SVGRepo_bgCarrier">
	</g>
	<g id="SVGRepo_tracerCarrier">
	</g>
	<g id="SVGRepo_iconCarrier">
		<g>
			<g>
				<path class="s0" d="m85.63 44.18c-0.06-2.26-1.17-4.28-2.86-5.6 0.45-0.96 0.7-2.02 0.7-3.14 0-4.1-3.34-7.44-7.45-7.44h-8.64l0.05-10.41c0.01-2.03-0.78-3.95-2.22-5.4-1.44-1.44-3.36-2.24-5.4-2.24-3.06 0-5.82 1.83-7.02 4.65-1.03 2.42-2.99 6.01-5.69 10.39-1.14 1.86-3.2 3.01-5.38 3.01h-6.13-5.94-15.28v41.71h15.28 5.94 38.26c4.11 0 7.45-3.33 7.45-7.44 0-1.1-0.24-2.15-0.68-3.1 1.73-1.36 2.85-3.47 2.85-5.84 0-1.1-0.25-2.15-0.68-3.1q0.39-0.3 0.73-0.66c1.42-1.45 2.17-3.36 2.11-5.39zm-55.98 19.6h-9.34v-29.84h9.34zm49.62-18.35c-0.17 0.17-0.53 0.46-1.08 0.46h-2.17-5.94v5.93h5.94c0.83 0 1.51 0.67 1.51 1.5 0 0.84-0.68 1.51-1.51 1.51h-2.17-3.77v5.93h3.77c0.83 0 1.51 0.68 1.51 1.51 0 0.83-0.68 1.51-1.51 1.51h-38.26v-29.85h6.13c4.23 0 8.23-2.24 10.45-5.84 1.98-3.22 4.65-7.78 6.09-11.17 0.27-0.63 0.88-1.04 1.55-1.04 0.45 0 0.87 0.18 1.19 0.49 0.32 0.32 0.49 0.74 0.49 1.19l-0.07 16.37h14.6c0.83 0 1.51 0.68 1.51 1.51 0 0.83-0.68 1.5-1.51 1.5h-5.94v5.93h5.94 2.07c0.86 0 1.58 0.66 1.6 1.47 0.02 0.55-0.26 0.92-0.42 1.09z"/>
			</g>
		</g>
		<g>
			<g>
				<path class="s0" d="m0 0.08v81.48h39.32l10.68 14.48 10.68-14.48h39.32v-81.48zm94.06 75.55h-36.39l-7.67 10.41-7.67-10.41h-36.39v-69.62h88.12z"/>
			</g>
		</g>
	</g>
</svg>